<?xml version="1.0" encoding="UTF-8"?>
<!DOCTYPE svg PUBLIC "-//W3C//DTD SVG 1.1//EN" "http://www.w3.org/Graphics/SVG/1.1/DTD/svg11.dtd">
<svg xmlns="http://www.w3.org/2000/svg" version="1.1" width="150px" height="140px" style="shape-rendering:geometricPrecision; text-rendering:geometricPrecision; image-rendering:optimizeQuality; fill-rule:evenodd; clip-rule:evenodd" xmlns:xlink="http://www.w3.org/1999/xlink">
<g><path style="opacity:1" fill="#13449a" d="M 69.5,14.5 C 66.4424,17.9485 64.4424,21.9485 63.5,26.5C 61.7475,35.607 63.7475,43.9404 69.5,51.5C 67.9826,51.4894 66.8159,50.8228 66,49.5C 63.2361,57.6688 59.7361,65.3355 55.5,72.5C 46.5747,62.1943 43.408,50.1943 46,36.5C 47.077,33.1007 48.2437,29.7674 49.5,26.5C 54.8702,20.4881 61.5369,16.4881 69.5,14.5 Z"/></g>
<g><path style="opacity:1" fill="#3678b0" d="M 83.5,21.5 C 84.552,21.3505 85.552,21.5172 86.5,22C 90.6667,26.1667 94.8333,30.3333 99,34.5C 99.4955,32.5273 99.6621,30.5273 99.5,28.5C 100.833,31.1667 100.833,33.8333 99.5,36.5C 98.8333,36.5 98.5,36.8333 98.5,37.5C 93.4266,33.9344 88.7599,29.7677 84.5,25C 82.8659,24.5065 81.1992,24.3398 79.5,24.5C 80.4363,23.0256 81.7697,22.0256 83.5,21.5 Z"/></g>
<g><path style="opacity:1" fill="#2d9bbe" d="M 83.5,21.5 C 87.4076,20.2015 91.4076,20.3682 95.5,22C 97.7337,23.6379 99.067,25.8045 99.5,28.5C 99.6621,30.5273 99.4955,32.5273 99,34.5C 94.8333,30.3333 90.6667,26.1667 86.5,22C 85.552,21.5172 84.552,21.3505 83.5,21.5 Z"/></g>
<g><path style="opacity:1" fill="#19489b" d="M 95.5,40.5 C 95.0825,41.2216 94.4158,41.7216 93.5,42C 90.1832,42.4983 86.8499,42.665 83.5,42.5C 83.0269,41.0937 82.0269,40.427 80.5,40.5C 77.8851,36.9912 76.8851,32.9912 77.5,28.5C 78.1174,28.3893 78.6174,28.056 79,27.5C 82.6511,31.6516 86.4844,35.6516 90.5,39.5C 92.0709,40.3094 93.7376,40.6427 95.5,40.5 Z"/></g>
<g><path style="opacity:1" fill="#175fa6" d="M 79.5,24.5 C 81.1992,24.3398 82.8659,24.5065 84.5,25C 88.7599,29.7677 93.4266,33.9344 98.5,37.5C 97.8333,38.8333 96.8333,39.8333 95.5,40.5C 93.7376,40.6427 92.0709,40.3094 90.5,39.5C 86.4844,35.6516 82.6511,31.6516 79,27.5C 78.6174,28.056 78.1174,28.3893 77.5,28.5C 77.7329,26.9382 78.3995,25.6049 79.5,24.5 Z"/></g>
<g><path style="opacity:1" fill="#13479c" d="M 46.5,29.5 C 43.2779,38.6095 42.6112,47.9428 44.5,57.5C 44.0361,67.5594 41.0361,76.5594 35.5,84.5C 28.4296,63.8408 32.0962,45.5074 46.5,29.5 Z"/></g>
<g><path style="opacity:1" fill="#ab4c8d" d="M 80.5,40.5 C 82.0269,40.427 83.0269,41.0937 83.5,42.5C 81.9731,42.573 80.9731,41.9063 80.5,40.5 Z"/></g>
<g><path style="opacity:1" fill="#c7629d" d="M 99.5,36.5 C 98.0218,41.7745 94.3552,44.4412 88.5,44.5C 86.4434,44.5643 84.7767,43.8976 83.5,42.5C 86.8499,42.665 90.1832,42.4983 93.5,42C 94.4158,41.7216 95.0825,41.2216 95.5,40.5C 96.8333,39.8333 97.8333,38.8333 98.5,37.5C 98.5,36.8333 98.8333,36.5 99.5,36.5 Z"/></g>
<g><path style="opacity:1" fill="#a2266a" d="M 63.5,26.5 C 63.1209,44.1154 71.1209,56.1154 87.5,62.5C 88.5,63.1667 89.5,63.8333 90.5,64.5C 89.1667,64.5 87.8333,64.5 86.5,64.5C 85.1667,64.1667 83.8333,63.8333 82.5,63.5C 80.1401,61.1468 77.4735,59.1468 74.5,57.5C 72.8333,55.5 71.1667,53.5 69.5,51.5C 63.7475,43.9404 61.7475,35.607 63.5,26.5 Z"/></g>
<g><path style="opacity:1" fill="#104e9e" d="M 69.5,51.5 C 71.1667,53.5 72.8333,55.5 74.5,57.5C 73.5041,57.4142 72.6708,57.7476 72,58.5C 69.2757,65.7923 66.1091,72.7923 62.5,79.5C 59.1667,78.1667 56.8333,75.8333 55.5,72.5C 59.7361,65.3355 63.2361,57.6688 66,49.5C 66.8159,50.8228 67.9826,51.4894 69.5,51.5 Z"/></g>
<g><path style="opacity:1" fill="#e14189" d="M 87.5,60.5 C 87.5,61.1667 87.5,61.8333 87.5,62.5C 71.1209,56.1154 63.1209,44.1154 63.5,26.5C 64.4424,21.9485 66.4424,17.9485 69.5,14.5C 73.2724,13.1904 73.4391,13.8571 70,16.5C 63.171,36.1766 69.0044,50.8433 87.5,60.5 Z"/></g>
<g><path style="opacity:1" fill="#1558a3" d="M 74.5,57.5 C 77.4735,59.1468 80.1401,61.1468 82.5,63.5C 81.2502,63.5774 80.4169,64.244 80,65.5C 77.6605,71.5099 75.3272,77.5099 73,83.5C 72.3292,84.2524 71.4959,84.5858 70.5,84.5C 67.2957,83.6167 64.6291,81.9501 62.5,79.5C 66.1091,72.7923 69.2757,65.7923 72,58.5C 72.6708,57.7476 73.5041,57.4142 74.5,57.5 Z"/></g>
<g><path style="opacity:1" fill="#1865a8" d="M 82.5,63.5 C 83.8333,63.8333 85.1667,64.1667 86.5,64.5C 88.5,65.8333 90.5,67.1667 92.5,68.5C 91.5,68.5 90.5,68.5 89.5,68.5C 87.3643,75.5738 85.031,82.5738 82.5,89.5C 81.1667,89.5 79.8333,89.5 78.5,89.5C 75.4604,88.3197 72.7937,86.653 70.5,84.5C 71.4959,84.5858 72.3292,84.2524 73,83.5C 75.3272,77.5099 77.6605,71.5099 80,65.5C 80.4169,64.244 81.2502,63.5774 82.5,63.5 Z"/></g>
<g><path style="opacity:1" fill="#1b72ad" d="M 92.5,68.5 C 94.8185,68.9925 96.8185,69.9925 98.5,71.5C 97.4138,71.62 96.7472,72.2867 96.5,73.5C 94.5233,79.5515 92.3567,85.8848 90,92.5C 89.1841,93.8228 88.0174,94.4894 86.5,94.5C 83.7972,92.8193 81.1305,91.1526 78.5,89.5C 79.8333,89.5 81.1667,89.5 82.5,89.5C 85.031,82.5738 87.3643,75.5738 89.5,68.5C 90.5,68.5 91.5,68.5 92.5,68.5 Z"/></g>
<g><path style="opacity:1" fill="#1252a0" d="M 44.5,57.5 C 46.6067,63.0467 49.2733,68.38 52.5,73.5C 52.4142,74.4959 52.7476,75.3292 53.5,76C 50.6134,81.9895 48.1134,88.1561 46,94.5C 45.5776,96.4257 44.4109,97.4257 42.5,97.5C 39.3891,93.6131 37.0557,89.2798 35.5,84.5C 41.0361,76.5594 44.0361,67.5594 44.5,57.5 Z"/></g>
<g><path style="opacity:1" fill="#2082b3" d="M 98.5,71.5 C 103.098,72.4654 107.098,74.4654 110.5,77.5C 109.325,77.281 108.325,77.6143 107.5,78.5C 103.771,88.2897 99.771,97.9564 95.5,107.5C 93.6999,102.361 90.6999,98.0282 86.5,94.5C 88.0174,94.4894 89.1841,93.8228 90,92.5C 92.3567,85.8848 94.5233,79.5515 96.5,73.5C 96.7472,72.2867 97.4138,71.62 98.5,71.5 Z"/></g>
<g><path style="opacity:1" fill="#145fa6" d="M 52.5,73.5 C 54.5273,74.8606 56.194,76.5273 57.5,78.5C 58.6359,86.9991 56.9692,94.9991 52.5,102.5C 51.3112,103.429 49.9778,103.762 48.5,103.5C 46.1667,101.833 44.1667,99.8333 42.5,97.5C 44.4109,97.4257 45.5776,96.4257 46,94.5C 48.1134,88.1561 50.6134,81.9895 53.5,76C 52.7476,75.3292 52.4142,74.4959 52.5,73.5 Z"/></g>
<g><path style="opacity:1" fill="#c45293" d="M 86.5,64.5 C 87.8333,64.5 89.1667,64.5 90.5,64.5C 101.227,67.7799 111.06,72.7799 120,79.5C 124.912,85.4008 126.412,92.0674 124.5,99.5C 124.5,99.8333 124.5,100.167 124.5,100.5C 123.833,99.1667 123.167,97.8333 122.5,96.5C 122.753,91.3534 121.087,87.0201 117.5,83.5C 115.761,80.7573 113.427,78.7573 110.5,77.5C 107.098,74.4654 103.098,72.4654 98.5,71.5C 96.8185,69.9925 94.8185,68.9925 92.5,68.5C 90.5,67.1667 88.5,65.8333 86.5,64.5 Z"/></g>
<g><path style="opacity:1" fill="#2495bb" d="M 110.5,77.5 C 113.427,78.7573 115.761,80.7573 117.5,83.5C 115.665,84.1223 114.498,85.4556 114,87.5C 110.131,95.9448 106.964,104.611 104.5,113.5C 101.838,114.499 99.1716,115.499 96.5,116.5C 96.7359,113.391 96.4025,110.391 95.5,107.5C 99.771,97.9564 103.771,88.2897 107.5,78.5C 108.325,77.6143 109.325,77.281 110.5,77.5 Z"/></g>
<g><path style="opacity:1" fill="#e865a8" d="M 87.5,60.5 C 96.8457,64.5629 106.179,68.7296 115.5,73C 122.965,77.4336 127.298,83.9336 128.5,92.5C 128.439,95.6276 127.106,97.9609 124.5,99.5C 126.412,92.0674 124.912,85.4008 120,79.5C 111.06,72.7799 101.227,67.7799 90.5,64.5C 89.5,63.8333 88.5,63.1667 87.5,62.5C 87.5,61.8333 87.5,61.1667 87.5,60.5 Z"/></g>
<g><path style="opacity:1" fill="#c8d7e1" d="M 49.5,26.5 C 48.2437,29.7674 47.077,33.1007 46,36.5C 43.408,50.1943 46.5747,62.1943 55.5,72.5C 56.8333,75.8333 59.1667,78.1667 62.5,79.5C 64.6291,81.9501 67.2957,83.6167 70.5,84.5C 72.7937,86.653 75.4604,88.3197 78.5,89.5C 81.1305,91.1526 83.7972,92.8193 86.5,94.5C 90.6999,98.0282 93.6999,102.361 95.5,107.5C 96.4025,110.391 96.7359,113.391 96.5,116.5C 95.6862,114.369 95.1862,112.036 95,109.5C 94.8171,112.365 94.3171,115.031 93.5,117.5C 95.2283,109.53 92.895,103.197 86.5,98.5C 84.0819,95.4531 81.0819,93.1198 77.5,91.5C 75.4832,90.4706 73.4832,89.4706 71.5,88.5C 66.871,85.1789 62.2043,81.8456 57.5,78.5C 56.194,76.5273 54.5273,74.8606 52.5,73.5C 49.2733,68.38 46.6067,63.0467 44.5,57.5C 42.6112,47.9428 43.2779,38.6095 46.5,29.5C 46.5,28.5 46.5,27.5 46.5,26.5C 47.5,26.5 48.5,26.5 49.5,26.5 Z"/></g>
<g><path style="opacity:1" fill="#2da6c2" d="M 117.5,83.5 C 121.087,87.0201 122.753,91.3534 122.5,96.5C 122.552,98.9029 122.219,101.236 121.5,103.5C 116.504,107.946 110.838,111.279 104.5,113.5C 106.964,104.611 110.131,95.9448 114,87.5C 114.498,85.4556 115.665,84.1223 117.5,83.5 Z"/></g>
<g><path style="opacity:1" fill="#1e84b5" d="M 71.5,88.5 C 73.4832,89.4706 75.4832,90.4706 77.5,91.5C 75.4346,99.0275 72.768,106.361 69.5,113.5C 68.3112,114.429 66.9778,114.762 65.5,114.5C 63.597,114.204 61.9303,113.537 60.5,112.5C 62.4109,112.426 63.5776,111.426 64,109.5C 66.6094,102.503 69.1094,95.5027 71.5,88.5 Z"/></g>
<g><path style="opacity:1" fill="#1c73ae" d="M 57.5,78.5 C 62.2043,81.8456 66.871,85.1789 71.5,88.5C 69.1094,95.5027 66.6094,102.503 64,109.5C 63.5776,111.426 62.4109,112.426 60.5,112.5C 55.7458,110.461 51.7458,107.461 48.5,103.5C 49.9778,103.762 51.3112,103.429 52.5,102.5C 56.9692,94.9991 58.6359,86.9991 57.5,78.5 Z"/></g>
<g><path style="opacity:1" fill="#2a99be" d="M 77.5,91.5 C 81.0819,93.1198 84.0819,95.4531 86.5,98.5C 86.4142,99.4959 86.7476,100.329 87.5,101C 84.6032,106.192 82.6032,111.692 81.5,117.5C 79.5,117.5 77.5,117.5 75.5,117.5C 71.7144,117.68 68.381,116.68 65.5,114.5C 66.9778,114.762 68.3112,114.429 69.5,113.5C 72.768,106.361 75.4346,99.0275 77.5,91.5 Z"/></g>
<g><path style="opacity:1" fill="#bd8fbd" d="M 122.5,96.5 C 123.167,97.8333 123.833,99.1667 124.5,100.5C 123.833,101.833 122.833,102.833 121.5,103.5C 122.219,101.236 122.552,98.9029 122.5,96.5 Z"/></g>
<g><path style="opacity:1" fill="#38b1c8" d="M 86.5,98.5 C 92.895,103.197 95.2283,109.53 93.5,117.5C 87.5,118.833 81.5,118.833 75.5,117.5C 77.5,117.5 79.5,117.5 81.5,117.5C 82.6032,111.692 84.6032,106.192 87.5,101C 86.7476,100.329 86.4142,99.4959 86.5,98.5 Z"/></g>
</svg>
